<svg xmlns="http://www.w3.org/2000/svg" version="1.1" xmlns:xlink="http://www.w3.org/1999/xlink" xmlns:svgjs="http://svgjs.com/svgjs" width="1016" height="1016" viewBox="0 0 1016 1016" fill="#ffffff"><rect width="1016" height="1016" fill="#ffffff" x="0" y="0"></rect><rect width="26" height="26" x="286.125" y="78.125" opacity="1" fill="#000000" transform="matrix(1,0,0,1,0,0)"></rect><rect width="26" height="26" x="338.125" y="78.125" opacity="1" fill="#000000" transform="matrix(1,0,0,1,0,0)"></rect><rect width="26" height="26" x="390.125" y="78.125" opacity="1" fill="#000000" transform="matrix(1,0,0,1,0,0)"></rect><rect width="26" height="26" x="494.125" y="78.125" opacity="1" fill="#000000" transform="matrix(1,0,0,1,0,0)"></rect><rect width="26" height="26" x="598.125" y="78.125" opacity="1" fill="#000000" transform="matrix(1,0,0,1,0,0)"></rect><rect width="26" height="26" x="624.125" y="78.125" opacity="1" fill="#000000" transform="matrix(1,0,0,1,0,0)"></rect><rect width="26" height="26" x="676.125" y="78.125" opacity="1" fill="#000000" transform="matrix(1,0,0,1,0,0)"></rect><rect width="26" height="26" x="702.125" y="78.125" opacity="1" fill="#000000" transform="matrix(1,0,0,1,0,0)"></rect><rect width="26" height="26" x="286.125" y="104.125" opacity="1" fill="#000000" transform="matrix(1,0,0,1,0,0)"></rect><rect width="26" height="26" x="312.125" y="104.125" opacity="1" fill="#000000" transform="matrix(1,0,0,1,0,0)"></rect><rect width="26" height="26" x="390.125" y="104.125" opacity="1" fill="#000000" transform="matrix(1,0,0,1,0,0)"></rect><rect width="26" height="26" x="468.125" y="104.125" opacity="1" fill="#000000" transform="matrix(1,0,0,1,0,0)"></rect><rect width="26" height="26" x="494.125" y="104.125" opacity="1" fill="#000000" transform="matrix(1,0,0,1,0,0)"></rect><rect width="26" height="26" x="546.125" y="104.125" opacity="1" fill="#000000" transform="matrix(1,0,0,1,0,0)"></rect><rect width="26" height="26" x="572.125" y="104.125" opacity="1" fill="#000000" transform="matrix(1,0,0,1,0,0)"></rect><rect width="26" height="26" x="624.125" y="104.125" opacity="1" fill="#000000" transform="matrix(1,0,0,1,0,0)"></rect><rect width="26" height="26" x="650.125" y="104.125" opacity="1" fill="#000000" transform="matrix(1,0,0,1,0,0)"></rect><rect width="26" height="26" x="702.125" y="104.125" opacity="1" fill="#000000" transform="matrix(1,0,0,1,0,0)"></rect><rect width="26" height="26" x="286.125" y="130.125" opacity="1" fill="#000000" transform="matrix(1,0,0,1,0,0)"></rect><rect width="26" height="26" x="312.125" y="130.125" opacity="1" fill="#000000" transform="matrix(1,0,0,1,0,0)"></rect><rect width="26" height="26" x="364.125" y="130.125" opacity="1" fill="#000000" transform="matrix(1,0,0,1,0,0)"></rect><rect width="26" height="26" x="390.125" y="130.125" opacity="1" fill="#000000" transform="matrix(1,0,0,1,0,0)"></rect><rect width="26" height="26" x="416.125" y="130.125" opacity="1" fill="#000000" transform="matrix(1,0,0,1,0,0)"></rect><rect width="26" height="26" x="468.125" y="130.125" opacity="1" fill="#000000" transform="matrix(1,0,0,1,0,0)"></rect><rect width="26" height="26" x="546.125" y="130.125" opacity="1" fill="#000000" transform="matrix(1,0,0,1,0,0)"></rect><rect width="26" height="26" x="598.125" y="130.125" opacity="1" fill="#000000" transform="matrix(1,0,0,1,0,0)"></rect><rect width="26" height="26" x="624.125" y="130.125" opacity="1" fill="#000000" transform="matrix(1,0,0,1,0,0)"></rect><rect width="26" height="26" x="650.125" y="130.125" opacity="1" fill="#000000" transform="matrix(1,0,0,1,0,0)"></rect><rect width="26" height="26" x="676.125" y="130.125" opacity="1" fill="#000000" transform="matrix(1,0,0,1,0,0)"></rect><rect width="26" height="26" x="702.125" y="130.125" opacity="1" fill="#000000" transform="matrix(1,0,0,1,0,0)"></rect><rect width="26" height="26" x="312.125" y="156.125" opacity="1" fill="#000000" transform="matrix(1,0,0,1,0,0)"></rect><rect width="26" height="26" x="390.125" y="156.125" opacity="1" fill="#000000" transform="matrix(1,0,0,1,0,0)"></rect><rect width="26" height="26" x="442.125" y="156.125" opacity="1" fill="#000000" transform="matrix(1,0,0,1,0,0)"></rect><rect width="26" height="26" x="468.125" y="156.125" opacity="1" fill="#000000" transform="matrix(1,0,0,1,0,0)"></rect><rect width="26" height="26" x="494.125" y="156.125" opacity="1" fill="#000000" transform="matrix(1,0,0,1,0,0)"></rect><rect width="26" height="26" x="598.125" y="156.125" opacity="1" fill="#000000" transform="matrix(1,0,0,1,0,0)"></rect><rect width="26" height="26" x="650.125" y="156.125" opacity="1" fill="#000000" transform="matrix(1,0,0,1,0,0)"></rect><rect width="26" height="26" x="676.125" y="156.125" opacity="1" fill="#000000" transform="matrix(1,0,0,1,0,0)"></rect><rect width="26" height="26" x="338.125" y="182.125" opacity="1" fill="#000000" transform="matrix(1,0,0,1,0,0)"></rect><rect width="26" height="26" x="364.125" y="182.125" opacity="1" fill="#000000" transform="matrix(1,0,0,1,0,0)"></rect><rect width="26" height="26" x="442.125" y="182.125" opacity="1" fill="#000000" transform="matrix(1,0,0,1,0,0)"></rect><rect width="26" height="26" x="468.125" y="182.125" opacity="1" fill="#000000" transform="matrix(1,0,0,1,0,0)"></rect><rect width="26" height="26" x="494.125" y="182.125" opacity="1" fill="#000000" transform="matrix(1,0,0,1,0,0)"></rect><rect width="26" height="26" x="520.125" y="182.125" opacity="1" fill="#000000" transform="matrix(1,0,0,1,0,0)"></rect><rect width="26" height="26" x="650.125" y="182.125" opacity="1" fill="#000000" transform="matrix(1,0,0,1,0,0)"></rect><rect width="26" height="26" x="702.125" y="182.125" opacity="1" fill="#000000" transform="matrix(1,0,0,1,0,0)"></rect><rect width="26" height="26" x="312.125" y="208.125" opacity="1" fill="#000000" transform="matrix(1,0,0,1,0,0)"></rect><rect width="26" height="26" x="338.125" y="208.125" opacity="1" fill="#000000" transform="matrix(1,0,0,1,0,0)"></rect><rect width="26" height="26" x="364.125" y="208.125" opacity="1" fill="#000000" transform="matrix(1,0,0,1,0,0)"></rect><rect width="26" height="26" x="416.125" y="208.125" opacity="1" fill="#000000" transform="matrix(1,0,0,1,0,0)"></rect><rect width="26" height="26" x="520.125" y="208.125" opacity="1" fill="#000000" transform="matrix(1,0,0,1,0,0)"></rect><rect width="26" height="26" x="546.125" y="208.125" opacity="1" fill="#000000" transform="matrix(1,0,0,1,0,0)"></rect><rect width="26" height="26" x="312.125" y="260.125" opacity="1" fill="#000000" transform="matrix(1,0,0,1,0,0)"></rect><rect width="26" height="26" x="442.125" y="260.125" opacity="1" fill="#000000" transform="matrix(1,0,0,1,0,0)"></rect><rect width="26" height="26" x="494.125" y="260.125" opacity="1" fill="#000000" transform="matrix(1,0,0,1,0,0)"></rect><rect width="26" height="26" x="624.125" y="260.125" opacity="1" fill="#000000" transform="matrix(1,0,0,1,0,0)"></rect><rect width="26" height="26" x="702.125" y="260.125" opacity="1" fill="#000000" transform="matrix(1,0,0,1,0,0)"></rect><rect width="26" height="26" x="130.125" y="286.125" opacity="1" fill="#000000" transform="matrix(1,0,0,1,0,0)"></rect><rect width="26" height="26" x="156.125" y="286.125" opacity="1" fill="#000000" transform="matrix(1,0,0,1,0,0)"></rect><rect width="26" height="26" x="338.125" y="286.125" opacity="1" fill="#000000" transform="matrix(1,0,0,1,0,0)"></rect><rect width="26" height="26" x="390.125" y="286.125" opacity="1" fill="#000000" transform="matrix(1,0,0,1,0,0)"></rect><rect width="26" height="26" x="468.125" y="286.125" opacity="1" fill="#000000" transform="matrix(1,0,0,1,0,0)"></rect><rect width="26" height="26" x="520.125" y="286.125" opacity="1" fill="#000000" transform="matrix(1,0,0,1,0,0)"></rect><rect width="26" height="26" x="546.125" y="286.125" opacity="1" fill="#000000" transform="matrix(1,0,0,1,0,0)"></rect><rect width="26" height="26" x="650.125" y="286.125" opacity="1" fill="#000000" transform="matrix(1,0,0,1,0,0)"></rect><rect width="26" height="26" x="702.125" y="286.125" opacity="1" fill="#000000" transform="matrix(1,0,0,1,0,0)"></rect><rect width="26" height="26" x="728.125" y="286.125" opacity="1" fill="#000000" transform="matrix(1,0,0,1,0,0)"></rect><rect width="26" height="26" x="754.125" y="286.125" opacity="1" fill="#000000" transform="matrix(1,0,0,1,0,0)"></rect><rect width="26" height="26" x="780.125" y="286.125" opacity="1" fill="#000000" transform="matrix(1,0,0,1,0,0)"></rect><rect width="26" height="26" x="858.125" y="286.125" opacity="1" fill="#000000" transform="matrix(1,0,0,1,0,0)"></rect><rect width="26" height="26" x="884.125" y="286.125" opacity="1" fill="#000000" transform="matrix(1,0,0,1,0,0)"></rect><rect width="26" height="26" x="910.125" y="286.125" opacity="1" fill="#000000" transform="matrix(1,0,0,1,0,0)"></rect><rect width="26" height="26" x="130.125" y="312.125" opacity="1" fill="#000000" transform="matrix(1,0,0,1,0,0)"></rect><rect width="26" height="26" x="156.125" y="312.125" opacity="1" fill="#000000" transform="matrix(1,0,0,1,0,0)"></rect><rect width="26" height="26" x="182.125" y="312.125" opacity="1" fill="#000000" transform="matrix(1,0,0,1,0,0)"></rect><rect width="26" height="26" x="208.125" y="312.125" opacity="1" fill="#000000" transform="matrix(1,0,0,1,0,0)"></rect><rect width="26" height="26" x="338.125" y="312.125" opacity="1" fill="#000000" transform="matrix(1,0,0,1,0,0)"></rect><rect width="26" height="26" x="364.125" y="312.125" opacity="1" fill="#000000" transform="matrix(1,0,0,1,0,0)"></rect><rect width="26" height="26" x="416.125" y="312.125" opacity="1" fill="#000000" transform="matrix(1,0,0,1,0,0)"></rect><rect width="26" height="26" x="442.125" y="312.125" opacity="1" fill="#000000" transform="matrix(1,0,0,1,0,0)"></rect><rect width="26" height="26" x="468.125" y="312.125" opacity="1" fill="#000000" transform="matrix(1,0,0,1,0,0)"></rect><rect width="26" height="26" x="572.125" y="312.125" opacity="1" fill="#000000" transform="matrix(1,0,0,1,0,0)"></rect><rect width="26" height="26" x="676.125" y="312.125" opacity="1" fill="#000000" transform="matrix(1,0,0,1,0,0)"></rect><rect width="26" height="26" x="728.125" y="312.125" opacity="1" fill="#000000" transform="matrix(1,0,0,1,0,0)"></rect><rect width="26" height="26" x="754.125" y="312.125" opacity="1" fill="#000000" transform="matrix(1,0,0,1,0,0)"></rect><rect width="26" height="26" x="884.125" y="312.125" opacity="1" fill="#000000" transform="matrix(1,0,0,1,0,0)"></rect><rect width="26" height="26" x="910.125" y="312.125" opacity="1" fill="#000000" transform="matrix(1,0,0,1,0,0)"></rect><rect width="26" height="26" x="78.125" y="338.125" opacity="1" fill="#000000" transform="matrix(1,0,0,1,0,0)"></rect><rect width="26" height="26" x="104.125" y="338.125" opacity="1" fill="#000000" transform="matrix(1,0,0,1,0,0)"></rect><rect width="26" height="26" x="156.125" y="338.125" opacity="1" fill="#000000" transform="matrix(1,0,0,1,0,0)"></rect><rect width="26" height="26" x="182.125" y="338.125" opacity="1" fill="#000000" transform="matrix(1,0,0,1,0,0)"></rect><rect width="26" height="26" x="208.125" y="338.125" opacity="1" fill="#000000" transform="matrix(1,0,0,1,0,0)"></rect><rect width="26" height="26" x="260.125" y="338.125" opacity="1" fill="#000000" transform="matrix(1,0,0,1,0,0)"></rect><rect width="26" height="26" x="286.125" y="338.125" opacity="1" fill="#000000" transform="matrix(1,0,0,1,0,0)"></rect><rect width="26" height="26" x="312.125" y="338.125" opacity="1" fill="#000000" transform="matrix(1,0,0,1,0,0)"></rect><rect width="26" height="26" x="364.125" y="338.125" opacity="1" fill="#000000" transform="matrix(1,0,0,1,0,0)"></rect><rect width="26" height="26" x="390.125" y="338.125" opacity="1" fill="#000000" transform="matrix(1,0,0,1,0,0)"></rect><rect width="26" height="26" x="416.125" y="338.125" opacity="1" fill="#000000" transform="matrix(1,0,0,1,0,0)"></rect><rect width="26" height="26" x="442.125" y="338.125" opacity="1" fill="#000000" transform="matrix(1,0,0,1,0,0)"></rect><rect width="26" height="26" x="494.125" y="338.125" opacity="1" fill="#000000" transform="matrix(1,0,0,1,0,0)"></rect><rect width="26" height="26" x="520.125" y="338.125" opacity="1" fill="#000000" transform="matrix(1,0,0,1,0,0)"></rect><rect width="26" height="26" x="572.125" y="338.125" opacity="1" fill="#000000" transform="matrix(1,0,0,1,0,0)"></rect><rect width="26" height="26" x="598.125" y="338.125" opacity="1" fill="#000000" transform="matrix(1,0,0,1,0,0)"></rect><rect width="26" height="26" x="650.125" y="338.125" opacity="1" fill="#000000" transform="matrix(1,0,0,1,0,0)"></rect><rect width="26" height="26" x="780.125" y="338.125" opacity="1" fill="#000000" transform="matrix(1,0,0,1,0,0)"></rect><rect width="26" height="26" x="832.125" y="338.125" opacity="1" fill="#000000" transform="matrix(1,0,0,1,0,0)"></rect><rect width="26" height="26" x="858.125" y="338.125" opacity="1" fill="#000000" transform="matrix(1,0,0,1,0,0)"></rect><rect width="26" height="26" x="884.125" y="338.125" opacity="1" fill="#000000" transform="matrix(1,0,0,1,0,0)"></rect><rect width="26" height="26" x="78.125" y="364.125" opacity="1" fill="#000000" transform="matrix(1,0,0,1,0,0)"></rect><rect width="26" height="26" x="104.125" y="364.125" opacity="1" fill="#000000" transform="matrix(1,0,0,1,0,0)"></rect><rect width="26" height="26" x="156.125" y="364.125" opacity="1" fill="#000000" transform="matrix(1,0,0,1,0,0)"></rect><rect width="26" height="26" x="260.125" y="364.125" opacity="1" fill="#000000" transform="matrix(1,0,0,1,0,0)"></rect><rect width="26" height="26" x="312.125" y="364.125" opacity="1" fill="#000000" transform="matrix(1,0,0,1,0,0)"></rect><rect width="26" height="26" x="442.125" y="364.125" opacity="1" fill="#000000" transform="matrix(1,0,0,1,0,0)"></rect><rect width="26" height="26" x="494.125" y="364.125" opacity="1" fill="#000000" transform="matrix(1,0,0,1,0,0)"></rect><rect width="26" height="26" x="546.125" y="364.125" opacity="1" fill="#000000" transform="matrix(1,0,0,1,0,0)"></rect><rect width="26" height="26" x="572.125" y="364.125" opacity="1" fill="#000000" transform="matrix(1,0,0,1,0,0)"></rect><rect width="26" height="26" x="598.125" y="364.125" opacity="1" fill="#000000" transform="matrix(1,0,0,1,0,0)"></rect><rect width="26" height="26" x="676.125" y="364.125" opacity="1" fill="#000000" transform="matrix(1,0,0,1,0,0)"></rect><rect width="26" height="26" x="702.125" y="364.125" opacity="1" fill="#000000" transform="matrix(1,0,0,1,0,0)"></rect><rect width="26" height="26" x="728.125" y="364.125" opacity="1" fill="#000000" transform="matrix(1,0,0,1,0,0)"></rect><rect width="26" height="26" x="754.125" y="364.125" opacity="1" fill="#000000" transform="matrix(1,0,0,1,0,0)"></rect><rect width="26" height="26" x="832.125" y="364.125" opacity="1" fill="#000000" transform="matrix(1,0,0,1,0,0)"></rect><rect width="26" height="26" x="858.125" y="364.125" opacity="1" fill="#000000" transform="matrix(1,0,0,1,0,0)"></rect><rect width="26" height="26" x="884.125" y="364.125" opacity="1" fill="#000000" transform="matrix(1,0,0,1,0,0)"></rect><rect width="26" height="26" x="78.125" y="390.125" opacity="1" fill="#000000" transform="matrix(1,0,0,1,0,0)"></rect><rect width="26" height="26" x="182.125" y="390.125" opacity="1" fill="#000000" transform="matrix(1,0,0,1,0,0)"></rect><rect width="26" height="26" x="208.125" y="390.125" opacity="1" fill="#000000" transform="matrix(1,0,0,1,0,0)"></rect><rect width="26" height="26" x="260.125" y="390.125" opacity="1" fill="#000000" transform="matrix(1,0,0,1,0,0)"></rect><rect width="26" height="26" x="286.125" y="390.125" opacity="1" fill="#000000" transform="matrix(1,0,0,1,0,0)"></rect><rect width="26" height="26" x="624.125" y="390.125" opacity="1" fill="#000000" transform="matrix(1,0,0,1,0,0)"></rect><rect width="26" height="26" x="650.125" y="390.125" opacity="1" fill="#000000" transform="matrix(1,0,0,1,0,0)"></rect><rect width="26" height="26" x="702.125" y="390.125" opacity="1" fill="#000000" transform="matrix(1,0,0,1,0,0)"></rect><rect width="26" height="26" x="728.125" y="390.125" opacity="1" fill="#000000" transform="matrix(1,0,0,1,0,0)"></rect><rect width="26" height="26" x="780.125" y="390.125" opacity="1" fill="#000000" transform="matrix(1,0,0,1,0,0)"></rect><rect width="26" height="26" x="130.125" y="416.125" opacity="1" fill="#000000" transform="matrix(1,0,0,1,0,0)"></rect><rect width="26" height="26" x="182.125" y="416.125" opacity="1" fill="#000000" transform="matrix(1,0,0,1,0,0)"></rect><rect width="26" height="26" x="208.125" y="416.125" opacity="1" fill="#000000" transform="matrix(1,0,0,1,0,0)"></rect><rect width="26" height="26" x="312.125" y="416.125" opacity="1" fill="#000000" transform="matrix(1,0,0,1,0,0)"></rect><rect width="26" height="26" x="364.125" y="416.125" opacity="1" fill="#000000" transform="matrix(1,0,0,1,0,0)"></rect><rect width="26" height="26" x="676.125" y="416.125" opacity="1" fill="#000000" transform="matrix(1,0,0,1,0,0)"></rect><rect width="26" height="26" x="754.125" y="416.125" opacity="1" fill="#000000" transform="matrix(1,0,0,1,0,0)"></rect><rect width="26" height="26" x="806.125" y="416.125" opacity="1" fill="#000000" transform="matrix(1,0,0,1,0,0)"></rect><rect width="26" height="26" x="832.125" y="416.125" opacity="1" fill="#000000" transform="matrix(1,0,0,1,0,0)"></rect><rect width="26" height="26" x="910.125" y="416.125" opacity="1" fill="#000000" transform="matrix(1,0,0,1,0,0)"></rect><rect width="26" height="26" x="78.125" y="442.125" opacity="1" fill="#000000" transform="matrix(1,0,0,1,0,0)"></rect><rect width="26" height="26" x="104.125" y="442.125" opacity="1" fill="#000000" transform="matrix(1,0,0,1,0,0)"></rect><rect width="26" height="26" x="130.125" y="442.125" opacity="1" fill="#000000" transform="matrix(1,0,0,1,0,0)"></rect><rect width="26" height="26" x="156.125" y="442.125" opacity="1" fill="#000000" transform="matrix(1,0,0,1,0,0)"></rect><rect width="26" height="26" x="182.125" y="442.125" opacity="1" fill="#000000" transform="matrix(1,0,0,1,0,0)"></rect><rect width="26" height="26" x="312.125" y="442.125" opacity="1" fill="#000000" transform="matrix(1,0,0,1,0,0)"></rect><rect width="26" height="26" x="364.125" y="442.125" opacity="1" fill="#000000" transform="matrix(1,0,0,1,0,0)"></rect><rect width="26" height="26" x="650.125" y="442.125" opacity="1" fill="#000000" transform="matrix(1,0,0,1,0,0)"></rect><rect width="26" height="26" x="702.125" y="442.125" opacity="1" fill="#000000" transform="matrix(1,0,0,1,0,0)"></rect><rect width="26" height="26" x="728.125" y="442.125" opacity="1" fill="#000000" transform="matrix(1,0,0,1,0,0)"></rect><rect width="26" height="26" x="780.125" y="442.125" opacity="1" fill="#000000" transform="matrix(1,0,0,1,0,0)"></rect><rect width="26" height="26" x="806.125" y="442.125" opacity="1" fill="#000000" transform="matrix(1,0,0,1,0,0)"></rect><rect width="26" height="26" x="884.125" y="442.125" opacity="1" fill="#000000" transform="matrix(1,0,0,1,0,0)"></rect><rect width="26" height="26" x="78.125" y="468.125" opacity="1" fill="#000000" transform="matrix(1,0,0,1,0,0)"></rect><rect width="26" height="26" x="156.125" y="468.125" opacity="1" fill="#000000" transform="matrix(1,0,0,1,0,0)"></rect><rect width="26" height="26" x="182.125" y="468.125" opacity="1" fill="#000000" transform="matrix(1,0,0,1,0,0)"></rect><rect width="26" height="26" x="208.125" y="468.125" opacity="1" fill="#000000" transform="matrix(1,0,0,1,0,0)"></rect><rect width="26" height="26" x="312.125" y="468.125" opacity="1" fill="#000000" transform="matrix(1,0,0,1,0,0)"></rect><rect width="26" height="26" x="338.125" y="468.125" opacity="1" fill="#000000" transform="matrix(1,0,0,1,0,0)"></rect><rect width="26" height="26" x="364.125" y="468.125" opacity="1" fill="#000000" transform="matrix(1,0,0,1,0,0)"></rect><rect width="26" height="26" x="624.125" y="468.125" opacity="1" fill="#000000" transform="matrix(1,0,0,1,0,0)"></rect><rect width="26" height="26" x="650.125" y="468.125" opacity="1" fill="#000000" transform="matrix(1,0,0,1,0,0)"></rect><rect width="26" height="26" x="806.125" y="468.125" opacity="1" fill="#000000" transform="matrix(1,0,0,1,0,0)"></rect><rect width="26" height="26" x="832.125" y="468.125" opacity="1" fill="#000000" transform="matrix(1,0,0,1,0,0)"></rect><rect width="26" height="26" x="910.125" y="468.125" opacity="1" fill="#000000" transform="matrix(1,0,0,1,0,0)"></rect><rect width="26" height="26" x="130.125" y="494.125" opacity="1" fill="#000000" transform="matrix(1,0,0,1,0,0)"></rect><rect width="26" height="26" x="182.125" y="494.125" opacity="1" fill="#000000" transform="matrix(1,0,0,1,0,0)"></rect><rect width="26" height="26" x="260.125" y="494.125" opacity="1" fill="#000000" transform="matrix(1,0,0,1,0,0)"></rect><rect width="26" height="26" x="286.125" y="494.125" opacity="1" fill="#000000" transform="matrix(1,0,0,1,0,0)"></rect><rect width="26" height="26" x="312.125" y="494.125" opacity="1" fill="#000000" transform="matrix(1,0,0,1,0,0)"></rect><rect width="26" height="26" x="728.125" y="494.125" opacity="1" fill="#000000" transform="matrix(1,0,0,1,0,0)"></rect><rect width="26" height="26" x="780.125" y="494.125" opacity="1" fill="#000000" transform="matrix(1,0,0,1,0,0)"></rect><rect width="26" height="26" x="806.125" y="494.125" opacity="1" fill="#000000" transform="matrix(1,0,0,1,0,0)"></rect><rect width="26" height="26" x="858.125" y="494.125" opacity="1" fill="#000000" transform="matrix(1,0,0,1,0,0)"></rect><rect width="26" height="26" x="910.125" y="494.125" opacity="1" fill="#000000" transform="matrix(1,0,0,1,0,0)"></rect><rect width="26" height="26" x="104.125" y="520.125" opacity="1" fill="#000000" transform="matrix(1,0,0,1,0,0)"></rect><rect width="26" height="26" x="130.125" y="520.125" opacity="1" fill="#000000" transform="matrix(1,0,0,1,0,0)"></rect><rect width="26" height="26" x="182.125" y="520.125" opacity="1" fill="#000000" transform="matrix(1,0,0,1,0,0)"></rect><rect width="26" height="26" x="208.125" y="520.125" opacity="1" fill="#000000" transform="matrix(1,0,0,1,0,0)"></rect><rect width="26" height="26" x="338.125" y="520.125" opacity="1" fill="#000000" transform="matrix(1,0,0,1,0,0)"></rect><rect width="26" height="26" x="624.125" y="520.125" opacity="1" fill="#000000" transform="matrix(1,0,0,1,0,0)"></rect><rect width="26" height="26" x="676.125" y="520.125" opacity="1" fill="#000000" transform="matrix(1,0,0,1,0,0)"></rect><rect width="26" height="26" x="702.125" y="520.125" opacity="1" fill="#000000" transform="matrix(1,0,0,1,0,0)"></rect><rect width="26" height="26" x="728.125" y="520.125" opacity="1" fill="#000000" transform="matrix(1,0,0,1,0,0)"></rect><rect width="26" height="26" x="754.125" y="520.125" opacity="1" fill="#000000" transform="matrix(1,0,0,1,0,0)"></rect><rect width="26" height="26" x="182.125" y="546.125" opacity="1" fill="#000000" transform="matrix(1,0,0,1,0,0)"></rect><rect width="26" height="26" x="208.125" y="546.125" opacity="1" fill="#000000" transform="matrix(1,0,0,1,0,0)"></rect><rect width="26" height="26" x="312.125" y="546.125" opacity="1" fill="#000000" transform="matrix(1,0,0,1,0,0)"></rect><rect width="26" height="26" x="338.125" y="546.125" opacity="1" fill="#000000" transform="matrix(1,0,0,1,0,0)"></rect><rect width="26" height="26" x="364.125" y="546.125" opacity="1" fill="#000000" transform="matrix(1,0,0,1,0,0)"></rect><rect width="26" height="26" x="806.125" y="546.125" opacity="1" fill="#000000" transform="matrix(1,0,0,1,0,0)"></rect><rect width="26" height="26" x="858.125" y="546.125" opacity="1" fill="#000000" transform="matrix(1,0,0,1,0,0)"></rect><rect width="26" height="26" x="104.125" y="572.125" opacity="1" fill="#000000" transform="matrix(1,0,0,1,0,0)"></rect><rect width="26" height="26" x="156.125" y="572.125" opacity="1" fill="#000000" transform="matrix(1,0,0,1,0,0)"></rect><rect width="26" height="26" x="182.125" y="572.125" opacity="1" fill="#000000" transform="matrix(1,0,0,1,0,0)"></rect><rect width="26" height="26" x="260.125" y="572.125" opacity="1" fill="#000000" transform="matrix(1,0,0,1,0,0)"></rect><rect width="26" height="26" x="286.125" y="572.125" opacity="1" fill="#000000" transform="matrix(1,0,0,1,0,0)"></rect><rect width="26" height="26" x="338.125" y="572.125" opacity="1" fill="#000000" transform="matrix(1,0,0,1,0,0)"></rect><rect width="26" height="26" x="624.125" y="572.125" opacity="1" fill="#000000" transform="matrix(1,0,0,1,0,0)"></rect><rect width="26" height="26" x="650.125" y="572.125" opacity="1" fill="#000000" transform="matrix(1,0,0,1,0,0)"></rect><rect width="26" height="26" x="676.125" y="572.125" opacity="1" fill="#000000" transform="matrix(1,0,0,1,0,0)"></rect><rect width="26" height="26" x="702.125" y="572.125" opacity="1" fill="#000000" transform="matrix(1,0,0,1,0,0)"></rect><rect width="26" height="26" x="728.125" y="572.125" opacity="1" fill="#000000" transform="matrix(1,0,0,1,0,0)"></rect><rect width="26" height="26" x="806.125" y="572.125" opacity="1" fill="#000000" transform="matrix(1,0,0,1,0,0)"></rect><rect width="26" height="26" x="832.125" y="572.125" opacity="1" fill="#000000" transform="matrix(1,0,0,1,0,0)"></rect><rect width="26" height="26" x="858.125" y="572.125" opacity="1" fill="#000000" transform="matrix(1,0,0,1,0,0)"></rect><rect width="26" height="26" x="104.125" y="598.125" opacity="1" fill="#000000" transform="matrix(1,0,0,1,0,0)"></rect><rect width="26" height="26" x="156.125" y="598.125" opacity="1" fill="#000000" transform="matrix(1,0,0,1,0,0)"></rect><rect width="26" height="26" x="182.125" y="598.125" opacity="1" fill="#000000" transform="matrix(1,0,0,1,0,0)"></rect><rect width="26" height="26" x="208.125" y="598.125" opacity="1" fill="#000000" transform="matrix(1,0,0,1,0,0)"></rect><rect width="26" height="26" x="260.125" y="598.125" opacity="1" fill="#000000" transform="matrix(1,0,0,1,0,0)"></rect><rect width="26" height="26" x="286.125" y="598.125" opacity="1" fill="#000000" transform="matrix(1,0,0,1,0,0)"></rect><rect width="26" height="26" x="338.125" y="598.125" opacity="1" fill="#000000" transform="matrix(1,0,0,1,0,0)"></rect><rect width="26" height="26" x="364.125" y="598.125" opacity="1" fill="#000000" transform="matrix(1,0,0,1,0,0)"></rect><rect width="26" height="26" x="702.125" y="598.125" opacity="1" fill="#000000" transform="matrix(1,0,0,1,0,0)"></rect><rect width="26" height="26" x="780.125" y="598.125" opacity="1" fill="#000000" transform="matrix(1,0,0,1,0,0)"></rect><rect width="26" height="26" x="806.125" y="598.125" opacity="1" fill="#000000" transform="matrix(1,0,0,1,0,0)"></rect><rect width="26" height="26" x="832.125" y="598.125" opacity="1" fill="#000000" transform="matrix(1,0,0,1,0,0)"></rect><rect width="26" height="26" x="910.125" y="598.125" opacity="1" fill="#000000" transform="matrix(1,0,0,1,0,0)"></rect><rect width="26" height="26" x="78.125" y="624.125" opacity="1" fill="#000000" transform="matrix(1,0,0,1,0,0)"></rect><rect width="26" height="26" x="104.125" y="624.125" opacity="1" fill="#000000" transform="matrix(1,0,0,1,0,0)"></rect><rect width="26" height="26" x="130.125" y="624.125" opacity="1" fill="#000000" transform="matrix(1,0,0,1,0,0)"></rect><rect width="26" height="26" x="208.125" y="624.125" opacity="1" fill="#000000" transform="matrix(1,0,0,1,0,0)"></rect><rect width="26" height="26" x="338.125" y="624.125" opacity="1" fill="#000000" transform="matrix(1,0,0,1,0,0)"></rect><rect width="26" height="26" x="390.125" y="624.125" opacity="1" fill="#000000" transform="matrix(1,0,0,1,0,0)"></rect><rect width="26" height="26" x="442.125" y="624.125" opacity="1" fill="#000000" transform="matrix(1,0,0,1,0,0)"></rect><rect width="26" height="26" x="494.125" y="624.125" opacity="1" fill="#000000" transform="matrix(1,0,0,1,0,0)"></rect><rect width="26" height="26" x="546.125" y="624.125" opacity="1" fill="#000000" transform="matrix(1,0,0,1,0,0)"></rect><rect width="26" height="26" x="728.125" y="624.125" opacity="1" fill="#000000" transform="matrix(1,0,0,1,0,0)"></rect><rect width="26" height="26" x="858.125" y="624.125" opacity="1" fill="#000000" transform="matrix(1,0,0,1,0,0)"></rect><rect width="26" height="26" x="910.125" y="624.125" opacity="1" fill="#000000" transform="matrix(1,0,0,1,0,0)"></rect><rect width="26" height="26" x="78.125" y="650.125" opacity="1" fill="#000000" transform="matrix(1,0,0,1,0,0)"></rect><rect width="26" height="26" x="130.125" y="650.125" opacity="1" fill="#000000" transform="matrix(1,0,0,1,0,0)"></rect><rect width="26" height="26" x="156.125" y="650.125" opacity="1" fill="#000000" transform="matrix(1,0,0,1,0,0)"></rect><rect width="26" height="26" x="182.125" y="650.125" opacity="1" fill="#000000" transform="matrix(1,0,0,1,0,0)"></rect><rect width="26" height="26" x="286.125" y="650.125" opacity="1" fill="#000000" transform="matrix(1,0,0,1,0,0)"></rect><rect width="26" height="26" x="338.125" y="650.125" opacity="1" fill="#000000" transform="matrix(1,0,0,1,0,0)"></rect><rect width="26" height="26" x="442.125" y="650.125" opacity="1" fill="#000000" transform="matrix(1,0,0,1,0,0)"></rect><rect width="26" height="26" x="494.125" y="650.125" opacity="1" fill="#000000" transform="matrix(1,0,0,1,0,0)"></rect><rect width="26" height="26" x="546.125" y="650.125" opacity="1" fill="#000000" transform="matrix(1,0,0,1,0,0)"></rect><rect width="26" height="26" x="624.125" y="650.125" opacity="1" fill="#000000" transform="matrix(1,0,0,1,0,0)"></rect><rect width="26" height="26" x="650.125" y="650.125" opacity="1" fill="#000000" transform="matrix(1,0,0,1,0,0)"></rect><rect width="26" height="26" x="676.125" y="650.125" opacity="1" fill="#000000" transform="matrix(1,0,0,1,0,0)"></rect><rect width="26" height="26" x="702.125" y="650.125" opacity="1" fill="#000000" transform="matrix(1,0,0,1,0,0)"></rect><rect width="26" height="26" x="884.125" y="650.125" opacity="1" fill="#000000" transform="matrix(1,0,0,1,0,0)"></rect><rect width="26" height="26" x="78.125" y="676.125" opacity="1" fill="#000000" transform="matrix(1,0,0,1,0,0)"></rect><rect width="26" height="26" x="156.125" y="676.125" opacity="1" fill="#000000" transform="matrix(1,0,0,1,0,0)"></rect><rect width="26" height="26" x="182.125" y="676.125" opacity="1" fill="#000000" transform="matrix(1,0,0,1,0,0)"></rect><rect width="26" height="26" x="260.125" y="676.125" opacity="1" fill="#000000" transform="matrix(1,0,0,1,0,0)"></rect><rect width="26" height="26" x="286.125" y="676.125" opacity="1" fill="#000000" transform="matrix(1,0,0,1,0,0)"></rect><rect width="26" height="26" x="312.125" y="676.125" opacity="1" fill="#000000" transform="matrix(1,0,0,1,0,0)"></rect><rect width="26" height="26" x="338.125" y="676.125" opacity="1" fill="#000000" transform="matrix(1,0,0,1,0,0)"></rect><rect width="26" height="26" x="364.125" y="676.125" opacity="1" fill="#000000" transform="matrix(1,0,0,1,0,0)"></rect><rect width="26" height="26" x="442.125" y="676.125" opacity="1" fill="#000000" transform="matrix(1,0,0,1,0,0)"></rect><rect width="26" height="26" x="572.125" y="676.125" opacity="1" fill="#000000" transform="matrix(1,0,0,1,0,0)"></rect><rect width="26" height="26" x="598.125" y="676.125" opacity="1" fill="#000000" transform="matrix(1,0,0,1,0,0)"></rect><rect width="26" height="26" x="624.125" y="676.125" opacity="1" fill="#000000" transform="matrix(1,0,0,1,0,0)"></rect><rect width="26" height="26" x="676.125" y="676.125" opacity="1" fill="#000000" transform="matrix(1,0,0,1,0,0)"></rect><rect width="26" height="26" x="806.125" y="676.125" opacity="1" fill="#000000" transform="matrix(1,0,0,1,0,0)"></rect><rect width="26" height="26" x="858.125" y="676.125" opacity="1" fill="#000000" transform="matrix(1,0,0,1,0,0)"></rect><rect width="26" height="26" x="910.125" y="676.125" opacity="1" fill="#000000" transform="matrix(1,0,0,1,0,0)"></rect><rect width="26" height="26" x="78.125" y="702.125" opacity="1" fill="#000000" transform="matrix(1,0,0,1,0,0)"></rect><rect width="26" height="26" x="182.125" y="702.125" opacity="1" fill="#000000" transform="matrix(1,0,0,1,0,0)"></rect><rect width="26" height="26" x="208.125" y="702.125" opacity="1" fill="#000000" transform="matrix(1,0,0,1,0,0)"></rect><rect width="26" height="26" x="260.125" y="702.125" opacity="1" fill="#000000" transform="matrix(1,0,0,1,0,0)"></rect><rect width="26" height="26" x="286.125" y="702.125" opacity="1" fill="#000000" transform="matrix(1,0,0,1,0,0)"></rect><rect width="26" height="26" x="338.125" y="702.125" opacity="1" fill="#000000" transform="matrix(1,0,0,1,0,0)"></rect><rect width="26" height="26" x="416.125" y="702.125" opacity="1" fill="#000000" transform="matrix(1,0,0,1,0,0)"></rect><rect width="26" height="26" x="468.125" y="702.125" opacity="1" fill="#000000" transform="matrix(1,0,0,1,0,0)"></rect><rect width="26" height="26" x="520.125" y="702.125" opacity="1" fill="#000000" transform="matrix(1,0,0,1,0,0)"></rect><rect width="26" height="26" x="546.125" y="702.125" opacity="1" fill="#000000" transform="matrix(1,0,0,1,0,0)"></rect><rect width="26" height="26" x="572.125" y="702.125" opacity="1" fill="#000000" transform="matrix(1,0,0,1,0,0)"></rect><rect width="26" height="26" x="650.125" y="702.125" opacity="1" fill="#000000" transform="matrix(1,0,0,1,0,0)"></rect><rect width="26" height="26" x="676.125" y="702.125" opacity="1" fill="#000000" transform="matrix(1,0,0,1,0,0)"></rect><rect width="26" height="26" x="884.125" y="702.125" opacity="1" fill="#000000" transform="matrix(1,0,0,1,0,0)"></rect><rect width="26" height="26" x="910.125" y="702.125" opacity="1" fill="#000000" transform="matrix(1,0,0,1,0,0)"></rect><rect width="26" height="26" x="286.125" y="728.125" opacity="1" fill="#000000" transform="matrix(1,0,0,1,0,0)"></rect><rect width="26" height="26" x="338.125" y="728.125" opacity="1" fill="#000000" transform="matrix(1,0,0,1,0,0)"></rect><rect width="26" height="26" x="364.125" y="728.125" opacity="1" fill="#000000" transform="matrix(1,0,0,1,0,0)"></rect><rect width="26" height="26" x="390.125" y="728.125" opacity="1" fill="#000000" transform="matrix(1,0,0,1,0,0)"></rect><rect width="26" height="26" x="416.125" y="728.125" opacity="1" fill="#000000" transform="matrix(1,0,0,1,0,0)"></rect><rect width="26" height="26" x="572.125" y="728.125" opacity="1" fill="#000000" transform="matrix(1,0,0,1,0,0)"></rect><rect width="26" height="26" x="624.125" y="728.125" opacity="1" fill="#000000" transform="matrix(1,0,0,1,0,0)"></rect><rect width="26" height="26" x="676.125" y="728.125" opacity="1" fill="#000000" transform="matrix(1,0,0,1,0,0)"></rect><rect width="26" height="26" x="832.125" y="728.125" opacity="1" fill="#000000" transform="matrix(1,0,0,1,0,0)"></rect><rect width="26" height="26" x="884.125" y="728.125" opacity="1" fill="#000000" transform="matrix(1,0,0,1,0,0)"></rect><rect width="26" height="26" x="910.125" y="728.125" opacity="1" fill="#000000" transform="matrix(1,0,0,1,0,0)"></rect><rect width="26" height="26" x="312.125" y="754.125" opacity="1" fill="#000000" transform="matrix(1,0,0,1,0,0)"></rect><rect width="26" height="26" x="338.125" y="754.125" opacity="1" fill="#000000" transform="matrix(1,0,0,1,0,0)"></rect><rect width="26" height="26" x="390.125" y="754.125" opacity="1" fill="#000000" transform="matrix(1,0,0,1,0,0)"></rect><rect width="26" height="26" x="416.125" y="754.125" opacity="1" fill="#000000" transform="matrix(1,0,0,1,0,0)"></rect><rect width="26" height="26" x="442.125" y="754.125" opacity="1" fill="#000000" transform="matrix(1,0,0,1,0,0)"></rect><rect width="26" height="26" x="520.125" y="754.125" opacity="1" fill="#000000" transform="matrix(1,0,0,1,0,0)"></rect><rect width="26" height="26" x="572.125" y="754.125" opacity="1" fill="#000000" transform="matrix(1,0,0,1,0,0)"></rect><rect width="26" height="26" x="598.125" y="754.125" opacity="1" fill="#000000" transform="matrix(1,0,0,1,0,0)"></rect><rect width="26" height="26" x="624.125" y="754.125" opacity="1" fill="#000000" transform="matrix(1,0,0,1,0,0)"></rect><rect width="26" height="26" x="676.125" y="754.125" opacity="1" fill="#000000" transform="matrix(1,0,0,1,0,0)"></rect><rect width="26" height="26" x="832.125" y="754.125" opacity="1" fill="#000000" transform="matrix(1,0,0,1,0,0)"></rect><rect width="26" height="26" x="884.125" y="754.125" opacity="1" fill="#000000" transform="matrix(1,0,0,1,0,0)"></rect><rect width="26" height="26" x="312.125" y="780.125" opacity="1" fill="#000000" transform="matrix(1,0,0,1,0,0)"></rect><rect width="26" height="26" x="338.125" y="780.125" opacity="1" fill="#000000" transform="matrix(1,0,0,1,0,0)"></rect><rect width="26" height="26" x="390.125" y="780.125" opacity="1" fill="#000000" transform="matrix(1,0,0,1,0,0)"></rect><rect width="26" height="26" x="546.125" y="780.125" opacity="1" fill="#000000" transform="matrix(1,0,0,1,0,0)"></rect><rect width="26" height="26" x="624.125" y="780.125" opacity="1" fill="#000000" transform="matrix(1,0,0,1,0,0)"></rect><rect width="26" height="26" x="650.125" y="780.125" opacity="1" fill="#000000" transform="matrix(1,0,0,1,0,0)"></rect><rect width="26" height="26" x="676.125" y="780.125" opacity="1" fill="#000000" transform="matrix(1,0,0,1,0,0)"></rect><rect width="26" height="26" x="858.125" y="780.125" opacity="1" fill="#000000" transform="matrix(1,0,0,1,0,0)"></rect><rect width="26" height="26" x="884.125" y="780.125" opacity="1" fill="#000000" transform="matrix(1,0,0,1,0,0)"></rect><rect width="26" height="26" x="910.125" y="780.125" opacity="1" fill="#000000" transform="matrix(1,0,0,1,0,0)"></rect><rect width="26" height="26" x="286.125" y="806.125" opacity="1" fill="#000000" transform="matrix(1,0,0,1,0,0)"></rect><rect width="26" height="26" x="416.125" y="806.125" opacity="1" fill="#000000" transform="matrix(1,0,0,1,0,0)"></rect><rect width="26" height="26" x="442.125" y="806.125" opacity="1" fill="#000000" transform="matrix(1,0,0,1,0,0)"></rect><rect width="26" height="26" x="494.125" y="806.125" opacity="1" fill="#000000" transform="matrix(1,0,0,1,0,0)"></rect><rect width="26" height="26" x="520.125" y="806.125" opacity="1" fill="#000000" transform="matrix(1,0,0,1,0,0)"></rect><rect width="26" height="26" x="624.125" y="806.125" opacity="1" fill="#000000" transform="matrix(1,0,0,1,0,0)"></rect><rect width="26" height="26" x="884.125" y="806.125" opacity="1" fill="#000000" transform="matrix(1,0,0,1,0,0)"></rect><rect width="26" height="26" x="910.125" y="806.125" opacity="1" fill="#000000" transform="matrix(1,0,0,1,0,0)"></rect><rect width="26" height="26" x="286.125" y="832.125" opacity="1" fill="#000000" transform="matrix(1,0,0,1,0,0)"></rect><rect width="26" height="26" x="312.125" y="832.125" opacity="1" fill="#000000" transform="matrix(1,0,0,1,0,0)"></rect><rect width="26" height="26" x="364.125" y="832.125" opacity="1" fill="#000000" transform="matrix(1,0,0,1,0,0)"></rect><rect width="26" height="26" x="390.125" y="832.125" opacity="1" fill="#000000" transform="matrix(1,0,0,1,0,0)"></rect><rect width="26" height="26" x="494.125" y="832.125" opacity="1" fill="#000000" transform="matrix(1,0,0,1,0,0)"></rect><rect width="26" height="26" x="520.125" y="832.125" opacity="1" fill="#000000" transform="matrix(1,0,0,1,0,0)"></rect><rect width="26" height="26" x="546.125" y="832.125" opacity="1" fill="#000000" transform="matrix(1,0,0,1,0,0)"></rect><rect width="26" height="26" x="572.125" y="832.125" opacity="1" fill="#000000" transform="matrix(1,0,0,1,0,0)"></rect><rect width="26" height="26" x="598.125" y="832.125" opacity="1" fill="#000000" transform="matrix(1,0,0,1,0,0)"></rect><rect width="26" height="26" x="650.125" y="832.125" opacity="1" fill="#000000" transform="matrix(1,0,0,1,0,0)"></rect><rect width="26" height="26" x="728.125" y="832.125" opacity="1" fill="#000000" transform="matrix(1,0,0,1,0,0)"></rect><rect width="26" height="26" x="806.125" y="832.125" opacity="1" fill="#000000" transform="matrix(1,0,0,1,0,0)"></rect><rect width="26" height="26" x="858.125" y="832.125" opacity="1" fill="#000000" transform="matrix(1,0,0,1,0,0)"></rect><rect width="26" height="26" x="884.125" y="832.125" opacity="1" fill="#000000" transform="matrix(1,0,0,1,0,0)"></rect><rect width="26" height="26" x="286.125" y="858.125" opacity="1" fill="#000000" transform="matrix(1,0,0,1,0,0)"></rect><rect width="26" height="26" x="468.125" y="858.125" opacity="1" fill="#000000" transform="matrix(1,0,0,1,0,0)"></rect><rect width="26" height="26" x="494.125" y="858.125" opacity="1" fill="#000000" transform="matrix(1,0,0,1,0,0)"></rect><rect width="26" height="26" x="546.125" y="858.125" opacity="1" fill="#000000" transform="matrix(1,0,0,1,0,0)"></rect><rect width="26" height="26" x="598.125" y="858.125" opacity="1" fill="#000000" transform="matrix(1,0,0,1,0,0)"></rect><rect width="26" height="26" x="650.125" y="858.125" opacity="1" fill="#000000" transform="matrix(1,0,0,1,0,0)"></rect><rect width="26" height="26" x="676.125" y="858.125" opacity="1" fill="#000000" transform="matrix(1,0,0,1,0,0)"></rect><rect width="26" height="26" x="702.125" y="858.125" opacity="1" fill="#000000" transform="matrix(1,0,0,1,0,0)"></rect><rect width="26" height="26" x="728.125" y="858.125" opacity="1" fill="#000000" transform="matrix(1,0,0,1,0,0)"></rect><rect width="26" height="26" x="754.125" y="858.125" opacity="1" fill="#000000" transform="matrix(1,0,0,1,0,0)"></rect><rect width="26" height="26" x="832.125" y="858.125" opacity="1" fill="#000000" transform="matrix(1,0,0,1,0,0)"></rect><rect width="26" height="26" x="858.125" y="858.125" opacity="1" fill="#000000" transform="matrix(1,0,0,1,0,0)"></rect><rect width="26" height="26" x="312.125" y="884.125" opacity="1" fill="#000000" transform="matrix(1,0,0,1,0,0)"></rect><rect width="26" height="26" x="338.125" y="884.125" opacity="1" fill="#000000" transform="matrix(1,0,0,1,0,0)"></rect><rect width="26" height="26" x="390.125" y="884.125" opacity="1" fill="#000000" transform="matrix(1,0,0,1,0,0)"></rect><rect width="26" height="26" x="416.125" y="884.125" opacity="1" fill="#000000" transform="matrix(1,0,0,1,0,0)"></rect><rect width="26" height="26" x="442.125" y="884.125" opacity="1" fill="#000000" transform="matrix(1,0,0,1,0,0)"></rect><rect width="26" height="26" x="468.125" y="884.125" opacity="1" fill="#000000" transform="matrix(1,0,0,1,0,0)"></rect><rect width="26" height="26" x="520.125" y="884.125" opacity="1" fill="#000000" transform="matrix(1,0,0,1,0,0)"></rect><rect width="26" height="26" x="598.125" y="884.125" opacity="1" fill="#000000" transform="matrix(1,0,0,1,0,0)"></rect><rect width="26" height="26" x="728.125" y="884.125" opacity="1" fill="#000000" transform="matrix(1,0,0,1,0,0)"></rect><rect width="26" height="26" x="754.125" y="884.125" opacity="1" fill="#000000" transform="matrix(1,0,0,1,0,0)"></rect><rect width="26" height="26" x="780.125" y="884.125" opacity="1" fill="#000000" transform="matrix(1,0,0,1,0,0)"></rect><rect width="26" height="26" x="858.125" y="884.125" opacity="1" fill="#000000" transform="matrix(1,0,0,1,0,0)"></rect><rect width="26" height="26" x="312.125" y="910.125" opacity="1" fill="#000000" transform="matrix(1,0,0,1,0,0)"></rect><rect width="26" height="26" x="338.125" y="910.125" opacity="1" fill="#000000" transform="matrix(1,0,0,1,0,0)"></rect><rect width="26" height="26" x="364.125" y="910.125" opacity="1" fill="#000000" transform="matrix(1,0,0,1,0,0)"></rect><rect width="26" height="26" x="390.125" y="910.125" opacity="1" fill="#000000" transform="matrix(1,0,0,1,0,0)"></rect><rect width="26" height="26" x="416.125" y="910.125" opacity="1" fill="#000000" transform="matrix(1,0,0,1,0,0)"></rect><rect width="26" height="26" x="468.125" y="910.125" opacity="1" fill="#000000" transform="matrix(1,0,0,1,0,0)"></rect><rect width="26" height="26" x="572.125" y="910.125" opacity="1" fill="#000000" transform="matrix(1,0,0,1,0,0)"></rect><rect width="26" height="26" x="624.125" y="910.125" opacity="1" fill="#000000" transform="matrix(1,0,0,1,0,0)"></rect><rect width="26" height="26" x="650.125" y="910.125" opacity="1" fill="#000000" transform="matrix(1,0,0,1,0,0)"></rect><rect width="26" height="26" x="676.125" y="910.125" opacity="1" fill="#000000" transform="matrix(1,0,0,1,0,0)"></rect><rect width="26" height="26" x="702.125" y="910.125" opacity="1" fill="#000000" transform="matrix(1,0,0,1,0,0)"></rect><rect width="26" height="26" x="728.125" y="910.125" opacity="1" fill="#000000" transform="matrix(1,0,0,1,0,0)"></rect><rect width="26" height="26" x="754.125" y="910.125" opacity="1" fill="#000000" transform="matrix(1,0,0,1,0,0)"></rect><rect width="26" height="26" x="832.125" y="910.125" opacity="1" fill="#000000" transform="matrix(1,0,0,1,0,0)"></rect><rect width="26" height="26" x="858.125" y="910.125" opacity="1" fill="#000000" transform="matrix(1,0,0,1,0,0)"></rect><rect width="26" height="26" x="884.125" y="910.125" opacity="1" fill="#000000" transform="matrix(1,0,0,1,0,0)"></rect><svg xmlns="http://www.w3.org/2000/svg" version="1.1" xmlns:xlink="http://www.w3.org/1999/xlink" xmlns:svgjs="http://svgjs.com/svgjs" width="182" height="182" viewBox="0 0 182 182" x="78.125" y="78.125"><path d="   M0 0 L182 0 L182 182 L0 182 L0 0 Z
                                M26 26 L26 156 L156 156 L156 26 L26 26 Z" fill="#000000" stroke-width="10"></path></svg><svg xmlns="http://www.w3.org/2000/svg" version="1.1" xmlns:xlink="http://www.w3.org/1999/xlink" xmlns:svgjs="http://svgjs.com/svgjs" width="182" height="182" viewBox="0 0 182 182" x="754.125" y="78.125"><path d="   M0 0 L182 0 L182 182 L0 182 L0 0 Z
                                M26 26 L26 156 L156 156 L156 26 L26 26 Z" fill="#000000" stroke-width="10"></path></svg><svg xmlns="http://www.w3.org/2000/svg" version="1.1" xmlns:xlink="http://www.w3.org/1999/xlink" xmlns:svgjs="http://svgjs.com/svgjs" width="182" height="182" viewBox="0 0 182 182" x="78.125" y="754.125"><path d="   M0 0 L182 0 L182 182 L0 182 L0 0 Z
                                M26 26 L26 156 L156 156 L156 26 L26 26 Z" fill="#000000" stroke-width="10"></path></svg><svg xmlns="http://www.w3.org/2000/svg" version="1.1" xmlns:xlink="http://www.w3.org/1999/xlink" xmlns:svgjs="http://svgjs.com/svgjs" width="78" height="78" x="130.125" y="130.125"><rect width="78" height="78" fill="#000000"></rect></svg><svg xmlns="http://www.w3.org/2000/svg" version="1.1" xmlns:xlink="http://www.w3.org/1999/xlink" xmlns:svgjs="http://svgjs.com/svgjs" width="78" height="78" x="806.125" y="130.125"><rect width="78" height="78" fill="#000000"></rect></svg><svg xmlns="http://www.w3.org/2000/svg" version="1.1" xmlns:xlink="http://www.w3.org/1999/xlink" xmlns:svgjs="http://svgjs.com/svgjs" width="78" height="78" x="130.125" y="806.125"><rect width="78" height="78" fill="#000000"></rect></svg><rect width="26" height="26" x="286.125" y="234.125" opacity="1" fill="#000000" transform="matrix(1,0,0,1,0,0)"></rect><rect width="26" height="26" x="234.125" y="286.125" opacity="1" fill="#000000" transform="matrix(1,0,0,1,0,0)"></rect><rect width="26" height="26" x="338.125" y="234.125" opacity="1" fill="#000000" transform="matrix(1,0,0,1,0,0)"></rect><rect width="26" height="26" x="234.125" y="338.125" opacity="1" fill="#000000" transform="matrix(1,0,0,1,0,0)"></rect><rect width="26" height="26" x="390.125" y="234.125" opacity="1" fill="#000000" transform="matrix(1,0,0,1,0,0)"></rect><rect width="26" height="26" x="234.125" y="390.125" opacity="1" fill="#000000" transform="matrix(1,0,0,1,0,0)"></rect><rect width="26" height="26" x="442.125" y="234.125" opacity="1" fill="#000000" transform="matrix(1,0,0,1,0,0)"></rect><rect width="26" height="26" x="234.125" y="442.125" opacity="1" fill="#000000" transform="matrix(1,0,0,1,0,0)"></rect><rect width="26" height="26" x="494.125" y="234.125" opacity="1" fill="#000000" transform="matrix(1,0,0,1,0,0)"></rect><rect width="26" height="26" x="234.125" y="494.125" opacity="1" fill="#000000" transform="matrix(1,0,0,1,0,0)"></rect><rect width="26" height="26" x="546.125" y="234.125" opacity="1" fill="#000000" transform="matrix(1,0,0,1,0,0)"></rect><rect width="26" height="26" x="234.125" y="546.125" opacity="1" fill="#000000" transform="matrix(1,0,0,1,0,0)"></rect><rect width="26" height="26" x="598.125" y="234.125" opacity="1" fill="#000000" transform="matrix(1,0,0,1,0,0)"></rect><rect width="26" height="26" x="234.125" y="598.125" opacity="1" fill="#000000" transform="matrix(1,0,0,1,0,0)"></rect><rect width="26" height="26" x="650.125" y="234.125" opacity="1" fill="#000000" transform="matrix(1,0,0,1,0,0)"></rect><rect width="26" height="26" x="234.125" y="650.125" opacity="1" fill="#000000" transform="matrix(1,0,0,1,0,0)"></rect><rect width="26" height="26" x="702.125" y="234.125" opacity="1" fill="#000000" transform="matrix(1,0,0,1,0,0)"></rect><rect width="26" height="26" x="234.125" y="702.125" opacity="1" fill="#000000" transform="matrix(1,0,0,1,0,0)"></rect><rect width="26" height="26" x="702.125" y="702.125" opacity="1" fill="#000000" transform="matrix(1,0,0,1,0,0)"></rect><rect width="26" height="26" x="702.125" y="728.125" opacity="1" fill="#000000" transform="matrix(1,0,0,1,0,0)"></rect><rect width="26" height="26" x="702.125" y="754.125" opacity="1" fill="#000000" transform="matrix(1,0,0,1,0,0)"></rect><rect width="26" height="26" x="702.125" y="780.125" opacity="1" fill="#000000" transform="matrix(1,0,0,1,0,0)"></rect><rect width="26" height="26" x="806.125" y="728.125" opacity="1" fill="#000000" transform="matrix(1,0,0,1,0,0)"></rect><rect width="26" height="26" x="806.125" y="754.125" opacity="1" fill="#000000" transform="matrix(1,0,0,1,0,0)"></rect><rect width="26" height="26" x="806.125" y="780.125" opacity="1" fill="#000000" transform="matrix(1,0,0,1,0,0)"></rect><rect width="26" height="26" x="806.125" y="806.125" opacity="1" fill="#000000" transform="matrix(1,0,0,1,0,0)"></rect><rect width="26" height="26" x="728.125" y="702.125" opacity="1" fill="#000000" transform="matrix(1,0,0,1,0,0)"></rect><rect width="26" height="26" x="754.125" y="702.125" opacity="1" fill="#000000" transform="matrix(1,0,0,1,0,0)"></rect><rect width="26" height="26" x="780.125" y="702.125" opacity="1" fill="#000000" transform="matrix(1,0,0,1,0,0)"></rect><rect width="26" height="26" x="806.125" y="702.125" opacity="1" fill="#000000" transform="matrix(1,0,0,1,0,0)"></rect><rect width="26" height="26" x="702.125" y="806.125" opacity="1" fill="#000000" transform="matrix(1,0,0,1,0,0)"></rect><rect width="26" height="26" x="728.125" y="806.125" opacity="1" fill="#000000" transform="matrix(1,0,0,1,0,0)"></rect><rect width="26" height="26" x="754.125" y="806.125" opacity="1" fill="#000000" transform="matrix(1,0,0,1,0,0)"></rect><rect width="26" height="26" x="780.125" y="806.125" opacity="1" fill="#000000" transform="matrix(1,0,0,1,0,0)"></rect><rect width="26" height="26" x="754.125" y="754.125" opacity="1" fill="#000000" transform="matrix(1,0,0,1,0,0)"></rect><svg fill="none" x="412.525" y="413" width="190.95" height="190" viewBox="0 0 201 200" xmlns="http://www.w3.org/2000/svg">
<path d="M56.2149 69.2321C56.2149 68.6006 56.1117 68.0367 55.9052 67.5405C55.7146 67.0293 55.3573 66.5706 54.8332 66.1647C54.325 65.7436 53.6023 65.3376 52.6653 64.9467C51.7442 64.5407 50.553 64.1197 49.0919 63.6836C47.472 63.2025 45.9632 62.6611 44.5656 62.0597C43.168 61.4582 41.9372 60.759 40.8731 59.9621C39.8249 59.1651 39.007 58.2479 38.4194 57.2104C37.8318 56.1578 37.5379 54.9399 37.5379 53.5565C37.5379 52.2032 37.8397 50.9702 38.4432 49.8575C39.0626 48.7448 39.9361 47.79 41.0637 46.993C42.1913 46.1811 43.5174 45.557 45.0421 45.121C46.5826 44.6849 48.2819 44.4669 50.1401 44.4669C52.713 44.4669 54.9364 44.9105 56.8105 45.7976C58.7004 46.6848 60.1615 47.8877 61.1938 49.4064C62.2261 50.9251 62.7423 52.6317 62.7423 54.5264H56.2149C56.2149 53.5039 55.9846 52.6017 55.524 51.8198C55.0793 51.0379 54.3964 50.4214 53.4753 49.9703C52.57 49.5192 51.4265 49.2936 50.0448 49.2936C48.7108 49.2936 47.599 49.4816 46.7097 49.8575C45.8362 50.2334 45.1771 50.7447 44.7324 51.3912C44.3036 52.0378 44.0892 52.7596 44.0892 53.5565C44.0892 54.158 44.24 54.6993 44.5418 55.1804C44.8435 55.6466 45.2962 56.0902 45.8997 56.5112C46.5032 56.9172 47.2496 57.3006 48.139 57.6615C49.0443 58.0073 50.0925 58.3532 51.2836 58.699C53.1894 59.2403 54.857 59.8418 56.2864 60.5034C57.7316 61.165 58.9307 61.9168 59.8836 62.7589C60.8524 63.6009 61.575 64.5482 62.0514 65.6008C62.5438 66.6533 62.7899 67.8488 62.7899 69.187C62.7899 70.6004 62.4961 71.8635 61.9085 72.9762C61.3209 74.0889 60.4791 75.0362 59.3833 75.8181C58.2875 76.6 56.9693 77.194 55.4287 77.6C53.9041 78.006 52.1968 78.2089 50.3069 78.2089C48.6234 78.2089 46.9558 77.9984 45.3041 77.5774C43.6683 77.1413 42.1834 76.4948 40.8493 75.6377C39.5152 74.7656 38.4511 73.6679 37.6571 72.3447C36.863 71.0064 36.4659 69.4426 36.4659 67.6533H43.041C43.041 68.6908 43.2157 69.578 43.5651 70.3147C43.9303 71.0365 44.4386 71.6304 45.0897 72.0966C45.7567 72.5477 46.535 72.8785 47.4243 73.089C48.3137 73.2995 49.2746 73.4048 50.3069 73.4048C51.6409 73.4048 52.7368 73.2318 53.5944 72.886C54.4679 72.5251 55.119 72.0289 55.5479 71.3974C55.9925 70.7658 56.2149 70.0441 56.2149 69.2321Z" fill="black"></path>
<path d="M88.1372 66.9541H94.6884C94.5137 69.1494 93.8705 71.0966 92.7588 72.7958C91.6471 74.4799 90.0986 75.8031 88.1134 76.7654C86.1282 77.7278 83.7221 78.2089 80.8951 78.2089C78.7193 78.2089 76.7579 77.8481 75.0109 77.1263C73.2798 76.3895 71.7949 75.3445 70.5561 73.9912C69.3332 72.6229 68.3962 70.9839 67.745 69.0742C67.0939 67.1495 66.7683 64.9918 66.7683 62.601V60.0974C66.7683 57.7066 67.1018 55.5488 67.7689 53.6242C68.4359 51.6995 69.3888 50.0605 70.6276 48.7072C71.8822 47.3389 73.3831 46.2863 75.1301 45.5495C76.8929 44.8127 78.8623 44.4443 81.0381 44.4443C83.865 44.4443 86.2552 44.9405 88.2087 45.933C90.1621 46.9103 91.6789 48.2561 92.7588 49.9703C93.8388 51.6844 94.4899 53.6542 94.7123 55.8796H88.161C88.034 54.4963 87.7164 53.3234 87.2081 52.3611C86.7158 51.3987 85.9694 50.6695 84.9688 50.1733C83.9841 49.662 82.6739 49.4064 81.0381 49.4064C79.7675 49.4064 78.6479 49.632 77.6791 50.083C76.7262 50.5341 75.9321 51.2108 75.2968 52.113C74.6615 53.0001 74.1851 54.1128 73.8675 55.4511C73.5498 56.7743 73.391 58.308 73.391 60.0523V62.601C73.391 64.27 73.5339 65.7662 73.8198 67.0894C74.1057 68.4126 74.5504 69.5328 75.1539 70.4501C75.7574 71.3673 76.5356 72.0665 77.4885 72.5477C78.4414 73.0288 79.577 73.2694 80.8951 73.2694C82.4992 73.2694 83.8015 73.0288 84.8021 72.5477C85.8185 72.0665 86.5887 71.3598 87.1128 70.4275C87.6528 69.4953 87.9943 68.3374 88.1372 66.9541Z" fill="black"></path>
<path d="M113.556 49.9026L103.67 77.7578H96.7372L109.697 44.918H114.128L113.556 49.9026ZM121.822 77.7578L111.888 49.9026L111.293 44.918H115.748L128.779 77.7578H121.822ZM121.37 65.5557V70.4501H102.764V65.5557H121.37Z" fill="black"></path>
<path d="M160.225 44.918V77.7578H153.649L138.903 54.9775V77.7578H132.352V44.918H138.903L153.697 67.7209V44.918H160.225Z" fill="black"></path>
<path d="M41.3057 93.3326H52.0484L70.0132 140.171L87.9328 93.3326H98.7207L74.3013 155.555H65.68L41.3057 93.3326ZM35.8892 93.3326H46.4062L48.302 136.367V155.555H35.8892V93.3326ZM93.5751 93.3326H104.137V155.555H91.7244V136.367L93.5751 93.3326Z" fill="black"></path>
<path d="M160.334 146.325V155.555H125.397V146.325H160.334ZM129.189 93.3326V155.555H116.776V93.3326H129.189ZM155.775 119.017V128.034H125.397V119.017H155.775ZM160.198 93.3326V102.606H125.397V93.3326H160.198Z" fill="black"></path>
<path fill-rule="evenodd" clip-rule="evenodd" d="M49.2222 8.88916H9.22217V8.8893L9.22168 8.8893L9.22168 48.8893H18.1106L18.1106 17.778H49.2222V8.88916ZM182.556 8.8893L151.444 8.8893V17.7782H182.556V48.8893H191.445V8.8893H191.444L182.556 8.8893ZM151.444 182.222H182.556V151.111H191.445V191.111H182.556L151.444 191.111V182.222ZM18.1106 191.111H9.22168L9.22168 151.111H18.1106L18.1106 182.222H49.2223V191.111L18.1106 191.111Z" fill="black"></path>
</svg><svg xmlns="http://www.w3.org/2000/svg" version="1.1" xmlns:xlink="http://www.w3.org/1999/xlink" xmlns:svgjs="http://svgjs.com/svgjs" width="270.8671875" height="75.40625" viewBox="0 0 273 76" x="669.0078125" y="864.46875" opacity="1"><svg width="273" height="76" viewBox="0 0 273 76" fill="none" xmlns="http://www.w3.org/2000/svg">
<rect width="273" height="76" fill="white"></rect>
<path d="M61.3369 47.0653H51.8627C51.1745 47.0653 50.6166 47.6232 50.6166 48.3115V57.7857C50.6166 58.4739 51.1745 59.0318 51.8627 59.0318H61.3369C62.0252 59.0318 62.5831 58.4739 62.5831 57.7857V48.3115C62.5831 47.6232 62.0252 47.0653 61.3369 47.0653Z" fill="#060606"></path>
<path opacity="0.91" d="M69.2396 28.4576L29.7698 65.8258L12.5401 48.5961L50.9595 10.4233L69.2396 28.4576Z" fill="url(#paint0_linear_20060_1687)"></path>
<path d="M58.3498 50.3079H54.8502C54.3029 50.3079 53.8593 50.7515 53.8593 51.2987V54.7983C53.8593 55.3456 54.3029 55.7892 54.8502 55.7892H58.3498C58.897 55.7892 59.3407 55.3456 59.3407 54.7983V51.2987C59.3407 50.7515 58.897 50.3079 58.3498 50.3079Z" fill="white"></path>
<path d="M67.9628 10H52.0327C51.1549 10 50.4434 10.7116 50.4434 11.5894V27.5194C50.4434 28.3972 51.1549 29.1088 52.0327 29.1088H67.9628C68.8406 29.1088 69.5522 28.3972 69.5522 27.5194V11.5894C69.5522 10.7116 68.8406 10 67.9628 10Z" fill="#060606"></path>
<path d="M65.1533 12.8096H54.8434C53.9656 12.8096 53.254 13.5212 53.254 14.399V24.7088C53.254 25.5866 53.9656 26.2982 54.8434 26.2982H65.1533C66.0311 26.2982 66.7426 25.5866 66.7426 24.7088V14.399C66.7426 13.5212 66.0311 12.8096 65.1533 12.8096Z" fill="#F5F5F5"></path>
<path d="M62.7638 15.2545H57.4282C56.5505 15.2545 55.8389 15.9661 55.8389 16.8439V22.1795C55.8389 23.0573 56.5505 23.7689 57.4282 23.7689H62.7638C63.6416 23.7689 64.3532 23.0573 64.3532 22.1795V16.8439C64.3532 15.9661 63.6416 15.2545 62.7638 15.2545Z" fill="#060606"></path>
<path d="M29.5194 10H13.5894C12.7116 10 12 10.7116 12 11.5894V27.5194C12 28.3972 12.7116 29.1088 13.5894 29.1088H29.5194C30.3972 29.1088 31.1088 28.3972 31.1088 27.5194V11.5894C31.1088 10.7116 30.3972 10 29.5194 10Z" fill="#060606"></path>
<path d="M26.7092 12.8097H16.3994C15.5216 12.8097 14.81 13.5213 14.81 14.3991V24.7089C14.81 25.5867 15.5216 26.2983 16.3994 26.2983H26.7092C27.587 26.2983 28.2986 25.5867 28.2986 24.7089V14.3991C28.2986 13.5213 27.587 12.8097 26.7092 12.8097Z" fill="#F5F5F5"></path>
<path d="M24.3198 15.2545H18.9842C18.1064 15.2545 17.3948 15.9661 17.3948 16.8439V22.1795C17.3948 23.0573 18.1064 23.7689 18.9842 23.7689H24.3198C25.1976 23.7689 25.9092 23.0573 25.9092 22.1795V16.8439C25.9092 15.9661 25.1976 15.2545 24.3198 15.2545Z" fill="#060606"></path>
<path d="M29.5196 46.8912H13.5896C12.7118 46.8912 12.0002 47.6028 12.0002 48.4806V64.4106C12.0002 65.2884 12.7118 66 13.5896 66H29.5196C30.3974 66 31.109 65.2884 31.109 64.4106V48.4806C31.109 47.6028 30.3974 46.8912 29.5196 46.8912Z" fill="#060606"></path>
<path d="M26.7094 49.701H16.3996C15.5218 49.701 14.8102 50.4126 14.8102 51.2904V61.6003C14.8102 62.4781 15.5218 63.1897 16.3996 63.1897H26.7094C27.5872 63.1897 28.2988 62.4781 28.2988 61.6003V51.2904C28.2988 50.4126 27.5872 49.701 26.7094 49.701Z" fill="#F5F5F5"></path>
<path d="M24.32 52.1458H18.9844C18.1066 52.1458 17.395 52.8573 17.395 53.7351V59.0707C17.395 59.9485 18.1066 60.6601 18.9844 60.6601H24.32C25.1978 60.6601 25.9094 59.9485 25.9094 59.0707V53.7351C25.9094 52.8573 25.1978 52.1458 24.32 52.1458Z" fill="#060606"></path>
<path d="M120.547 20.0728V24.1111H109.632V54.1636H105.592V24.1111H94.6779V20.0728H120.546H120.547Z" fill="black"></path>
<path d="M110.756 55.2887H104.466V25.2363H93.5519V18.9463H121.672V25.2363H110.756V55.2887ZM106.716 53.0371H108.504V22.9846H119.42V21.1966H95.8022V22.9846H106.716V53.0371Z" fill="black"></path>
<path d="M155.188 54.2353L151.924 56.4458L149.713 53.9341C147.201 55.3412 144.088 56.0934 140.974 56.0934C133.842 56.0934 126.76 52.3258 126.76 44.892V30.3255C126.76 22.8916 133.842 19.1754 140.974 19.1754C148.105 19.1754 155.139 22.8916 155.139 30.3255V44.892C155.139 47.4037 154.184 49.7142 152.829 51.4224L155.189 54.2339L155.188 54.2353ZM150.116 47.9074C150.719 47.0526 150.97 46.0979 150.97 44.8934V30.3268C150.97 25.4047 145.947 23.2954 140.925 23.2954C135.953 23.344 130.979 25.5046 130.979 30.3268V44.8934C130.93 49.6143 135.952 51.9262 140.925 51.9262C143.335 51.9262 145.195 51.5737 147.203 50.5704C145.596 48.4111 145.293 48.2585 143.786 46.2505L147.203 44.0913L150.116 47.9088V47.9074Z" fill="black"></path>
<path d="M151.725 58L149.438 55.4009C146.941 56.6095 143.972 57.2687 140.972 57.2687C133.325 57.2687 125.583 53.0182 125.583 44.8919V30.3254C125.583 21.8564 133.561 18 140.972 18C148.384 18 156.313 21.8564 156.313 30.3254V44.8919C156.313 47.1747 155.611 49.4408 154.319 51.371L156.926 54.4767L151.725 57.9986V58ZM140.974 20.3507C134.693 20.3507 127.935 23.4716 127.935 30.3254V44.8919C127.935 51.779 134.693 54.9166 140.974 54.9166C143.925 54.9166 146.825 54.2019 149.139 52.9072L149.969 52.4423L152.122 54.8902L153.45 53.991L151.31 51.4418L151.907 50.6897C153.232 49.0189 153.962 46.9596 153.962 44.8906V30.324C153.962 23.4702 147.229 20.3493 140.972 20.3493L140.974 20.3507ZM140.924 53.1001C137.216 53.1001 133.821 51.9067 131.844 49.9084C130.488 48.5374 129.782 46.7986 129.803 44.8794V30.3254C129.803 24.7316 135.383 22.1728 140.913 22.1186C146.51 22.1186 152.146 24.6553 152.146 30.3254V44.8919C152.146 46.3781 151.806 47.5507 151.076 48.5846L150.152 49.8931L146.92 45.6579L145.504 46.553C145.807 46.9346 146.058 47.2371 146.309 47.5382C146.8 48.1294 147.293 48.7219 148.145 49.8668L148.983 50.9922L147.727 51.6194C145.651 52.6574 143.617 53.1001 140.924 53.1001ZM140.924 24.4708C136.884 24.511 132.153 26.068 132.153 30.3254V44.8919C132.14 46.2005 132.598 47.3273 133.515 48.2543C135.061 49.8168 137.829 50.7494 140.924 50.7494C142.668 50.7494 144.039 50.5509 145.352 50.0846C145.028 49.6753 144.765 49.3589 144.502 49.0425C144.045 48.4916 143.588 47.9435 142.846 46.954L142.082 45.9355L147.485 42.519L149.766 45.5081C149.785 45.3138 149.795 45.1098 149.795 44.8906V30.324C149.795 26.0028 145.017 24.4694 140.925 24.4694L140.924 24.4708Z" fill="black"></path>
<path d="M191.174 54.1637H186.222L175.21 40.2673H169.97V54.1637H165.93V20.1194H178.913C185.452 20.1194 190.405 23.0525 190.548 30.3136C190.548 37.0924 186.028 39.9299 180.211 40.2181L191.173 54.1624L191.174 54.1637ZM178.96 36.5172C183.577 36.5172 186.51 34.9789 186.51 30.3149C186.51 25.6509 183.384 24.0634 178.96 24.1604H169.97V36.5185H178.96V36.5172Z" fill="black"></path>
<path d="M193.49 55.2888H185.678L174.667 41.3923H171.096V55.2888H164.806V18.9941H178.914C186.881 18.9941 191.532 23.1122 191.674 30.2909C191.674 36.2926 188.309 40.149 182.355 41.124L193.49 55.2874V55.2888ZM186.766 53.0371H188.858L177.981 39.2018L180.156 39.0942C184.383 38.8843 189.424 37.1906 189.424 30.3135C189.274 22.8213 183.627 21.2445 178.914 21.2445H167.056V53.0371H168.844V39.1407H175.755L186.766 53.0371ZM178.96 37.6423H168.844V23.0338H178.96C181.982 22.9794 184.268 23.6595 185.732 25.0915C186.996 26.3269 187.636 28.0844 187.636 30.3148C187.636 35.1781 184.717 37.6436 178.961 37.6436L178.96 37.6423ZM171.095 35.392H178.96C183.523 35.392 185.384 33.9201 185.384 30.3148C185.384 28.6902 184.983 27.5092 184.158 26.7015C183.145 25.7092 181.394 25.2257 178.985 25.2855H171.095V35.392Z" fill="black"></path>
<path d="M212.131 19.317C217.099 19.317 222.117 21.5576 224.308 26.2325L220.655 28.0841C219.047 25.016 215.491 23.4079 211.984 23.4079C207.552 23.4079 203.071 25.6 203.071 30.0811V43.7196C203.071 48.2007 207.552 50.3929 211.984 50.3929C215.54 50.3929 219.095 48.8346 220.655 45.7664L224.308 47.47C222.068 52.1463 216.953 54.4837 211.984 54.4837C205.506 54.4837 198.98 50.88 198.98 43.7196V30.0811C198.98 22.9705 205.555 19.317 212.131 19.317Z" fill="black"></path>
<path d="M211.985 55.6236C204.956 55.6236 197.84 51.534 197.84 43.7197V30.0812C197.84 22.2668 205.028 18.1772 212.131 18.1772C218.089 18.1772 223.152 21.0785 225.341 25.7494L225.811 26.7506L220.169 29.6102L219.646 28.6144C218.353 26.145 215.346 24.5491 211.987 24.5491C208.242 24.5491 204.213 26.281 204.213 30.0812V43.7197C204.213 47.5212 208.242 49.2518 211.987 49.2518C215.453 49.2518 218.387 47.7177 219.641 45.2483L220.14 44.266L225.837 46.9237L225.339 47.9626C223.109 52.616 217.869 55.6236 211.988 55.6236H211.985ZM212.131 20.4582C206.346 20.4582 200.121 23.4698 200.121 30.0825V43.721C200.121 50.3337 206.272 53.3453 211.985 53.3453C216.543 53.3453 220.625 51.2757 222.72 47.9882L221.106 47.2359C219.263 49.9125 215.874 51.5354 211.985 51.5354C207.144 51.5354 201.932 49.0903 201.932 43.7223V30.0839C201.932 24.7159 207.144 22.2708 211.985 22.2708C215.748 22.2708 219.19 23.9381 221.075 26.5958L222.754 25.7454C220.38 21.8698 215.808 20.4595 212.132 20.4595L212.131 20.4582Z" fill="black"></path>
<path d="M232.559 30.3485C232.559 23.0041 239.299 19.2321 246.04 19.2321C251.12 19.2321 256.301 21.6461 258.615 26.4754L254.792 28.2865C253.233 25.1173 249.511 23.4572 245.94 23.4572C241.363 23.4572 236.734 25.7214 236.734 30.3485V44.6841C236.734 49.4123 241.413 51.6766 246.04 51.6766C250.667 51.6766 255.396 49.4123 255.396 44.6841V41.113H244.883V36.9378H259.571V44.6841C259.571 52.2295 252.831 55.9516 246.04 55.9516C239.248 55.9516 232.559 52.2295 232.559 44.6841V30.3485Z" fill="black"></path>
<path d="M246.038 57.0063C239.037 57.0063 231.503 53.1506 231.503 44.6841V30.3485C231.503 22.3575 238.815 18.1772 246.038 18.1772C252.065 18.1772 257.247 21.1817 259.565 26.0197L260.023 26.9758L254.303 29.6857L253.843 28.7533C252.576 26.1782 249.473 24.5131 245.937 24.5131C242.012 24.5131 237.788 26.3392 237.788 30.3497V44.6853C237.788 48.7644 242.064 50.623 246.038 50.623C250.013 50.623 254.339 48.7657 254.339 44.6853V42.1689H243.825V35.883H260.623V44.6853C260.623 53.1519 253.062 57.0075 246.037 57.0075L246.038 57.0063ZM246.038 20.2867C240.053 20.2867 233.614 23.4347 233.614 30.3485V44.6841C233.614 51.7002 240.054 54.8968 246.038 54.8968C252.022 54.8968 258.514 51.7014 258.514 44.6841V37.9924H245.936V40.057H256.449V44.6828C256.449 50.2123 251.052 52.73 246.038 52.73C241.024 52.73 235.677 50.2111 235.677 44.6828V30.3472C235.677 24.8876 240.996 22.4012 245.937 22.4012C249.86 22.4012 253.384 24.1436 255.218 26.9159L257.157 25.9972C254.63 21.8095 249.847 20.288 246.037 20.288L246.038 20.2867Z" fill="black"></path>
<defs>
<linearGradient id="paint0_linear_20060_1687" x1="21.5814" y1="55.3848" x2="57.5887" y2="22.2967" gradientUnits="userSpaceOnUse">
<stop stop-color="white" stop-opacity="0"></stop>
<stop offset="1" stop-color="#FA1F31"></stop>
</linearGradient>
</defs>
</svg></svg></svg>